<svg preserveAspectRatio="none" width="100%" height="100%" overflow="visible" style="display: block;" viewBox="0 0 28 28" fill="none" xmlns="http://www.w3.org/2000/svg">
<g id="container">
<path id="Vector" d="M20.7239 12.0943L22.2237 12.1564C21.9883 17.6514 19.4071 20.6816 14.7486 20.9712V24.0004H13.2488V20.9712C11.6572 20.8714 10.3079 20.4523 9.21156 19.7243L10.5276 18.7364C11.4796 19.2448 12.6372 19.5003 13.9987 19.5003C18.2529 19.5003 20.5148 17.0083 20.7239 12.0943ZM22.0854 7.04993L22.9106 8.18831L5.91194 20.9502L5.08594 19.8136L22.0854 7.04993ZM12.6766 17.1221L18.4271 12.8048L18.3859 13.1872C18.1007 15.4552 17.1347 17.2498 13.9996 17.2498C13.5069 17.2498 13.0677 17.2052 12.6766 17.1221ZM7.27344 12.0943C7.34431 13.7524 7.64794 15.1349 8.18344 16.2383L6.94969 17.1641C6.25494 15.8306 5.85856 14.1567 5.77281 12.1564L7.27344 12.0943ZM13.9987 4.50018C17.1399 4.50018 18.1042 6.30268 18.3868 8.57681L10.0104 14.8663C9.62631 13.8819 9.52394 12.6832 9.50294 11.4451L9.49944 10.6786L9.50819 10.0897L9.53094 9.50781C9.53444 9.44393 9.53794 9.38006 9.54231 9.31618L9.57206 8.93731C9.58344 8.81218 9.59744 8.68793 9.61231 8.56543L9.66481 8.20231C10.0087 6.10843 11.0333 4.50018 13.9987 4.50018Z" fill="var(--fill-0, #121212)"/>
</g>
</svg>
